<svg xmlns="http://www.w3.org/2000/svg" version="1.1" xmlns:xlink="http://www.w3.org/1999/xlink" xmlns:svgjs="http://svgjs.dev/svgjs" viewBox="0 0 1422 800"><defs><linearGradient x1="50%" y1="0%" x2="50%" y2="100%" id="ssscribble-grad"><stop stop-color="hsl(184, 74%, 44%)" stop-opacity="1" offset="0%"></stop><stop stop-color="hsl(332, 87%, 70%)" stop-opacity="1" offset="100%"></stop></linearGradient></defs><g fill="none" stroke-width="1.25" stroke="url(#ssscribble-grad)" stroke-linecap="round" stroke-dasharray="20"><path d="M1345.07 540.76C1273.2 562.02 1213.69 583.78 1179.66 605.84 1178.42 627.74 1208.05 649.63 1260 671.1 1323.57 691.97 1382.32 711.84 1423.51 730.13 1440.12 747.13 1427.2 761.8 1387.75 773.52 1328.57 783.26 1259.65 789.4 1191.93 791.55 1196.3 734.68 1216.6 759.01 1162.58 806.41 1116.68 847.45 1067.62 893.83 1018.25 943.24 968.23 992.53 921.27 1038.94 878.39 1078.99 837.89 1109.86 801.96 1128.94 770.22 1134.27 740.89 1126.45 714.72 1105.13 690.87 1072.18 668.33 1032.54 646.92 988.69 625.98 945.4 605.39 909.11 584.58 882.47 563.32 868.95 542.05 871.51 520.84 888.49 500.02 917.41 479.54 956.24 460.14 998.99 442.58 1040.84 407.91 1109.27 410.39 1044.32 431.01 976.58 445.46 927.07 460.63 878.23 473.76 832.77 479.83 792.39 478.54 758.88 466.86 732.87 442.68 714.88 405.88 704.2 356.82 699.77 299.3 701.76 236.22 707.59 173.3 715.65 130.79 754.39 275.97 742.01 246.9 722.39 193.71 707.19 124.81 689.97 53.03 671.26 -7.11 651.94 -43 631.68 -45.97 610.88 -16.14 589.91 41.2 568.71 113.07 547.44 180.62 526.18 228.34 505.36 246.15 484.91 230.3 464.3 186.76 443.75 126.99 422.97 63.06 401.59 11.32 379.41 -17.32 356.03 -18.27 331.43 10.04 304.96 61.72 276.24 128.18 245.79 198.15 212.66 260.97 176.76 308.9 139.31 336.34 99.41 342.51 57.58 328.27 15.7 299.67 -26.59 263.6 -67.99 224.08 -106.47 190.1 -141.51 166.47 -171.36 154.18 -194.8 156.85 -210.67 173.58 -217.78 202.62 -216.89 241.73 -207.05 287.33 -188.82 338.15 -165.49 389.85 -137.26 439.85 -106.71 488.76 -78.74 533.21 -54.47 572.71 -37.08 608.89 -30.42 640.28 -34.91 667.66 -51.58 692.32 -80.57 714.37 -119.68 734.81 -166.1 753.91 -216.15 772.69 -265.16 791.88 -308.19 810.72 -341.32 830.64 -360.46 851.9 -363.03 873.16 -349.52 895.27 -320.73 917.84 -280.23 940.07 -232.74 962.1 -182.63 983.1 -134.78 1002.76 -93.62 1020.1 -62.15 1034.02 -42.32 1048.4 -38.27 1045.35 -95.17 1027.09 -140.04 1012 -170.48 994.2 -196.26 976.15 -215.16 959.59 -228.59 984.2 -196.4 1037.63 -154.59 1089.13 -118.85 1149.65 -79.19 1214.28 -37.41 1275.45 6.11 1327.72 49.26 1364.11 90.91 1380.07 131.5 1373.24 169.4 1344.28 204.31 1300.42 237.07 1247.78 266.86 1196.91 293.97 1160.81 319.1 1146.34 342.2 1159.28 363.77 1199.93 384.06 1261.82 403.58 1333.96 422.81 1401.94 441.44 1451.74 460.36 1471.79 479.87 1458.19 499.23 1412.62 519.49 1345.07 540.76Q1345.07 540.76 1345.07 540.76" opacity="0.86"></path><path d="M1289.07 525.31C1223.45 544.64 1166.85 562.52 1129.68 578.88 1118.62 595.14 1134 609.66 1171.3 622.27 1224.23 634.51 1280.79 644.51 1330.43 652.08 1373.24 661.16 1315.78 664.95 1232.53 660.07 1169.6 656.15 1110.69 650.61 1061.69 644.15 1016.37 637.28 1022.06 636.34 1057.83 647.99 1087.81 663.04 1115.73 683.68 1138.43 710.27 1156.13 742.53 1164.93 779.94 1164.63 821.53 1156.66 865.42 1140.49 910.27 1117.77 953.82 1089.46 993.61 1057.28 1027.63 1023.07 1053.54 986.31 1070.07 949.66 1075.66 914.29 1069.6 878.32 1053.48 844.58 1027.38 813.52 993.26 782.55 955.54 754.38 915.97 729.17 878.19 704.04 847.19 681.75 824.61 662.42 812.95 643.09 814.61 627.18 828.2 614.66 851.98 602.22 884.78 593.28 922.08 587.81 960.27 582.41 997.53 580.34 1029.06 581.24 1052.33 582.7 1068.5 587.58 1030.89 583.92 982.61 574.89 942.43 560.26 898.98 538.43 854.59 508.94 810.73 471.37 769.53 426.01 732.36 375.65 699.83 321.19 672.77 265.87 651.22 214.79 635.31 170.62 624.33 137.81 617.43 119.47 614.92 117.6 614.93 132.97 616.38 161.84 620.22 202.02 623.99 247.71 626.89 305.84 631.43 320.8 629.85 260.78 622.63 200.24 616.54 134.44 607.95 74.05 596.96 29.29 585.68 8.23 572.23 15.46 556.72 48.81 541.12 103.45 523.64 169.07 504.31 231.11 484.98 277.79 464.27 300.88 442.21 296.24 420.07 266.69 396.43 219.25 371.25 161.75 345.79 106.9 318.57 64.63 289.59 40.65 260.19 40.51 228.95 63.67 196.01 106.51 162.9 163.1 128.42 225.51 93.05 287 58.41 340.04 23.83 379.88 -9.8 403.9 -41.04 411.53 -69.82 404.86 -94.97 385.26 -115.73 358.36 -131.29 328.84 -140.73 298.13 -144.51 272.41 -141.58 254.23 -131.87 243.09 -117.53 241.97 -97.86 250.3 -74.13 266.67 -49.86 290.62 -25.14 320.11 -2.2 354.57 15.21 391.6 26.69 429.4 30.34 468.93 24.01 507.27 8.11 543.52 -17.29 579.78 -51.46 613.32 -92.22 643.91 -136.94 674.16 -182.59 701.59 -225.58 726.22 -262.21 750.71 -289.81 772.65 -305.37 791.98 -307.03 811.31 -295.38 827.57 -270.84 840.73 -236.02 853.75 -194.42 863.42 -149.16 869.63 -103.98 875.49 -62.4 877.76 -27.06 876.57 -0.03 873.39 20.43 858.87 0.7 853.97 -30.98 856.22 -57.29 863.08 -83.4 876.5 -107.17 897.96 -128.63 927.86 -144.52 966.65 -153.96 1012.49 -157.72 1064.76 -154.24 1120.8 -143.95 1175.66 -127.87 1226.69 -106.11 1269.1 -79.8 1298.6 -49.57 1312.49 -16.59 1308.61 17.95 1288.89 54.21 1254.58 90.56 1210.34 126.22 1165.16 162.01 1124.33 196.34 1095.66 228.88 1086.67 260.85 1099.39 290.91 1134.28 319.03 1187.46 346.53 1251.54 372.34 1316.5 396.55 1371.39 420.4 1406.63 442.97 1415.1 464.37 1395.83 485.66 1351.11 505.98 1289.07 525.31Q1289.07 525.31 1289.07 525.31" opacity="0.15"></path><path d="M1233.11 419.88C1173.82 437.28 1120.86 452.45 1082.16 465.43 1063.43 478.41 1066.18 489.19 1088.64 497.84 1224.43 519.81 1256.06 534.73 1107.17 543.3 1007.66 561.04 945.71 589.98 926.49 634.3 945.97 693.95 983.06 767.02 1018.08 846.68 1053.45 951.13 1007.58 993.59 950.84 912.94 929.9 878.47 909.2 843.79 889.3 811.6 869.2 785.66 850.32 766.85 832.92 756.94 815.52 757.83 800.03 768.37 786.24 787.37 772.25 814.31 759.56 845.83 747.69 879.34 721.41 946.73 692.93 993.95 655.37 1009.72 605.55 993.82 538.73 946.44 454.5 878.69 365.84 800.42 278.81 723.44 213.73 656.32 187.34 601.76 208.04 562.25 271.32 535.09 342.78 519.6 393.97 509.39 389.13 499.52 317.05 493.46 203.44 482.56 101.11 464.55 71.94 455.71 64.07 444.83 79.37 431.83 114.62 418.83 165.82 403.67 225.11 386.27 281.46 368.88 326.25 349.66 353 328.77 357.78 307.89 341.38 285.37 307.59 261.41 208.25 213.8 123.42 161.41 98.65 107.16 143.68 56.74 241.09 9.65 349.7 -28.48 458.37 -60.17 424.65 -17.06 369.26 42.83 345.98 74.36 346.66 90.54 367.2 80.94 400.63 39.68 443.57 -27.33 488.08 -108.14 511.46 -148.37 533.95 -185.01 555 -215.39 576.22 -237.84 595.67 -250.15 613.06 -251.04 630.46 -241.13 645.4 -220.57 658.06 -191.19 670.9 -155.56 681.8 -115.76 691.23 -74.57 712.34 1.65 732.69 57.15 759.57 83.5 799.32 77.62 855.94 49.3 932.85 10.84 1020.24 -32.58 1113.44 -64.4 1193.04 -78.45 1238.13 -77.17 1236.62 -56.16 1185.56 -20.27 1113.17 26.63 1046.97 80.22 1027.44 134.93 1077.71 192.37 1182.35 246.41 1295.12 294.69 1335.62 318.85 1357.13 341.46 1355.8 362.37 1332.49 383.27 1289.46 402.48 1233.11 419.88Q1233.11 419.88 1233.11 419.88" opacity="0.44"></path><path d="M1177.11 300.17C1075.85 331.1 1013.3 356.07 1013.94 375.98 1074.76 396.89 1159.86 414.8 1229.04 432.15 1258.65 453.96 1232.75 479.58 1163.67 512.21 1070.29 553.55 978.41 604.85 906.43 665.86 860.92 731.94 843.41 800.87 844.8 865.09 871.75 932.47 904.32 913.52 891.96 832.04 878.11 773.64 855.15 725.59 824.22 700.94 793.3 709.97 755.86 746.21 711.39 798.86 665.17 859.68 609.41 910.28 544.36 940.43 478.79 948.52 409.05 929.56 343.83 888.54 294.78 831.46 267.89 765.44 272.86 698.53 304.3 633.43 359.51 575.96 420.69 527.69 457.57 487.15 455.73 454.31 403.45 426.58 311.6 403.47 208.9 381.32 136.14 357.71 123.57 335.25 179.85 309.02 281.11 278.09 373.39 247.16 414.07 213.01 389.77 177.14 313.39 142.42 227.43 108.31 170.83 77.81 162.11 51.95 208.42 33.85 290.78 26.73 387.72 27.33 473.19 40.39 532.49 64.95 562.87 106.01 515.62 150 493.21 114.85 484.64 62.04 488.95 -6.14 504.34 -78.9 521.97 -143.49 547.08 -186 578.01 -195.04 608.94 -170.4 644.22 -116.08 684.92 -45.75 727.85 25.97 779.81 86.95 841.98 128.45 907.15 145.55 979.75 141.32 1052.56 122.13 1112.75 90.1 1154.66 57.85 1166.06 32.3 1147.3 11.82 1098.5 4.92 1033.76 11.25 983.6 26.29 965.04 51.6 996.42 83.39 1075.7 119.63 1179.25 157.98 1267.57 195.4 1303.81 233.82 1269.39 269.24 1177.11 300.17Q1177.11 300.17 1177.11 300.17" opacity="0.13"></path><path d="M1121.07 252.14C1031.15 279.2 966.95 306.04 948.56 333.1 980.26 361.13 1043.92 391.18 1113.71 424.56 1171.45 461.01 1194.47 502.91 1178.99 550.78 1130.54 601.94 1059.7 658.04 982.19 716.31 905.68 771.6 842.2 821.97 794.85 861.55 761.9 886.76 741.77 893.62 728.65 879.57 722.67 849.81 715.98 804.74 704.46 751.35 694.21 703.1 676.23 664.8 649.17 644.95 622.11 651.01 587.24 678.17 546.46 719.63 506.94 771.2 464.4 819.51 423.48 856.48 389.7 880.81 365.27 885.32 356.51 870.93 362.15 841.19 386.78 798.18 427.82 747.5 469.86 691.46 508.61 635.19 528.89 582.15 516.19 530.9 468.9 484.99 391.32 444.62 301.7 406.84 222.63 373.1 180.49 342.47 188.44 312.75 247.15 284.5 337.07 257.44 420.07 230.37 466.65 205.79 463.91 184.47 414.33 164.06 342.24 148.57 275.06 139.45 229.56 132.92 223.89 134.26 256.57 143.81 319.08 155.14 397.34 172.55 475.49 193.13 546.65 208.34 600.86 219.26 637.63 220.83 658.89 207.04 669 178.26 674.56 134.1 673.97 77.29 676.47 13.58 685.68 -48.42 694.09 -100.32 711.3 -132.98 738.36 -139.04 765.42 -119.2 801.06 -75.42 843.68 -16.72 885.51 47.1 932.24 107.58 979.73 157.18 1009.93 162.93 917.14 107.61 997.45 119.4 1084.47 132.91 1171.95 152.09 1231.98 175.1 1245.17 199.07 1204.07 225.08 1121.07 252.14Q1121.07 252.14 1121.07 252.14" opacity="0.47"></path><path d="M1065.07 310.26C987.06 333.46 924.81 360.48 893.21 391.01 898.81 421.92 934.88 456.93 987.92 495.77 1047.96 535.22 1095.78 578.34 1121.82 623.78 1125.35 667.95 1103.46 711.81 1062.69 752.24 1007.8 786.24 947.16 811.96 887.94 825.98 829.59 828.57 778.74 817.07 736.21 791.5 697.79 757.92 665.77 716.23 638.28 671.67 612.31 633.77 588.14 604.46 564.94 588.95 541.75 592.55 520.63 611.7 502.85 642.39 486.59 683.11 476.42 724.73 474.64 761.58 476.97 793.34 489.62 812.89 512.23 819.09 535.69 814.41 563.03 797.23 587.51 770.4 597.89 736.1 592.27 696.64 564.59 655.25 514.4 611.46 445.78 568.83 368.73 529.11 298.69 489.43 249.42 453.36 234.86 421.55 257.51 389.97 315.06 362.33 393.07 339.13 490.31 307.11 481.02 271.12 398.08 267.54 320.79 269.28 316.9 288.25 385.57 295.22 447.43 291.66 510.86 281.33 569.51 261.86 624.52 231.51 670.46 191.16 707.78 142.4 740.13 88.55 767 33.73 790.84 -15.93 813.09 -55.57 835.29 -79.44 858.48 -83.04 881.68 -67.54 904.77 -33.53 926.27 13.31 946.18 66.82 961.5 121.71 969.36 172.3 972.24 214.87 964.5 247.18 945.24 268.74 922.35 278.88 892.22 280.66 860.75 277.07 840.15 267.03 832.33 256.48 845.21 248.06 882.68 238.37 942.44 233.45 1017.25 234.19 1123.8 239.15 1159.98 277.92 1065.11 310.25Q1065.07 310.26 1065.07 310.26" opacity="0.93"></path><path d="M1009.41 432.71C943.77 452.04 886.68 475.31 848.04 501.82 833.7 528.18 842.78 557.4 870.1 588.43 912.24 618.48 957.37 649.11 997.29 678.6 1040.16 716.59 1033.28 759.18 992.75 755.73 956.14 743.7 916.94 722.75 878.71 693.92 838.88 662.63 802.69 628.08 771.66 593.68 740.6 565.76 715.01 544.51 695.68 532.85 676.35 534.51 664.2 546.87 658.8 567.74 653.37 597.19 654.41 629.31 660.74 660.61 669.15 704.26 676.52 747.58 657.01 743.95 628.23 733.12 586.55 715.93 532.93 694.3 472.88 669.27 410.42 642.09 354.11 614.54 312.62 585.69 292.54 557.92 299.42 532.43 330.6 506.68 383.77 483.76 449.41 464.43 534.97 437.68 570.71 404.91 521.63 396.56 473.78 390.61 428.21 385.96 392.35 381.2 366.77 373.03 358.01 362.48 365.03 347.97 384.79 327.76 415.58 301.85 452.61 269.84 495.18 232.31 538.25 189.89 578.65 144.61 619.68 99.15 656.14 56.02 687 19.12 717.61 -9.2 742.86 -25.48 762.19 -27.14 781.52 -15.48 794.02 9.68 799.85 45.06 805.45 86.92 804.16 132.47 796.62 177.92 789.72 220.92 778.49 259.21 765.7 291.37 758.47 316.86 755.43 335.95 761 349.59 779.32 357.46 811 362.18 856.71 365.5 912.69 365.8 975.6 367 1037.62 370.45 1106.37 375.89 1093.01 406.15 1009.41 432.71Q1009.41 432.71 1009.41 432.71" opacity="0.73"></path><path d="M953.11 531.79C851.84 562.72 786.86 598.13 777.58 632.31 820.88 661.95 881.96 682 929.64 684.33 964.19 674.13 966.43 642.18 946.09 592.4 915.54 545.03 879.68 501.59 848.75 476.94 817.82 485.97 794.75 517.82 771.71 559.52 738.45 609.32 687.94 646.16 612.86 663.55 524.64 670.48 430.75 658.8 364.79 635.11 351.4 606.79 403.84 574.51 505.11 543.58 597.39 512.65 641.12 486 628.43 460.73 569.17 430.82 503.91 394.23 461.32 346.76 438.64 288.83 449.21 219.19 479.06 146.73 518.91 82.36 559.58 37.97 590.51 28.94 621.43 53.59 639.69 109.57 653.44 179.6 677.19 252.05 714.89 316.8 778.11 367.54 861.23 405.75 959.3 433.97 1041.22 457.93 1076.59 477.35 1045.39 500.86 953.11 531.79Q953.11 531.79 953.11 531.79" opacity="0.70"></path><path d="M897.07 536.15C819.06 559.35 755.58 576.82 719.99 586.77 715.68 594.59 733.32 591.57 758.65 576.3 792.78 557.8 816.87 528.4 825.17 492.39 831.57 462.49 822.92 436.46 799.73 420.95 776.53 424.55 740.98 440.64 694.38 463.73 645.89 495.72 585.59 524.24 521.06 544.06 444.21 565.84 456.02 550.43 561.07 519.55 633.96 496.35 684.3 467.53 703.81 433.75 691.64 398.23 661.78 355.27 629.74 306.47 593.06 256.25 570.17 203.12 564.39 154.13 561.77 114.04 572.99 88.55 596.19 84.95 619.38 100.46 652.35 135.89 695.16 182.79 741.14 235.8 800.23 289.81 867.31 338.71 929.75 384.38 984.23 423.6 1013.4 455.98 1010.91 486.22 969.98 512.95 897.11 536.14Q897.07 536.15 897.07 536.15" opacity="0.08"></path><path d="M841.11 442.73C739.84 473.66 670.11 473.26 643.81 446.94 649.44 423.83 651.22 389.59 620.3 364.94 560.47 385.53 493.51 440.12 617.11 409.66 709.39 378.73 759.08 321.81 768.48 256.8 748.07 198.15 739.64 149.97 770.57 140.94 801.49 165.59 865.92 224.9 926.87 288.55 958.01 355.41 933.39 411.81 841.11 442.73Q841.11 442.73 841.11 442.73" opacity="0.54"></path></g></svg>